<svg width="29" height="27" viewBox="0 0 29 27" fill="none" xmlns="http://www.w3.org/2000/svg">
<path fill-rule="evenodd" clip-rule="evenodd" d="M22.4419 0.375H5.77874V2.30813H-0.0150146V11.3756C-0.0150146 14.88 3.89624 17.7638 7.73436 18.0638C8.99436 19.4138 11.2106 20.3944 13.1831 20.8125V23.1825C11.2969 23.7619 7.92749 25.1231 7.73436 26.6063H20.6794C20.4844 25.1231 16.7719 23.76 14.8819 23.1825V20.8125C16.8619 20.3944 19.1775 19.4138 20.4394 18.0638C24.2756 17.7638 28.0144 14.88 28.0144 11.3756V2.30813H22.4419V0.375ZM1.76436 4.02563H5.64374V11.8369C5.64374 13.3781 6.04124 14.8444 6.74061 16.1644C3.83811 15.24 1.76436 12.8588 1.76436 10.0725V4.02563ZM16.9594 13.5525L14.0644 11.9569L11.1656 13.5525L11.7187 10.1775L9.37499 7.78875L12.6131 7.29563L14.0644 4.22813L15.5119 7.29563L18.75 7.78875L16.4062 10.1775L16.9594 13.5525ZM21.2625 16.4138C21.9656 15.0338 22.3687 13.5075 22.3687 11.8931V4.07625H26.2575V10.05C26.2575 12.9619 24.1744 15.4481 21.2625 16.4138Z" fill="#05FF00"/>
</svg>
